<svg width="1107" height="461" xmlns="http://www.w3.org/2000/svg" xmlns:xlink="http://www.w3.org/1999/xlink" overflow="hidden"><defs><filter id="fx0" x="-10%" y="-10%" width="120%" height="120%" filterUnits="userSpaceOnUse" primitiveUnits="userSpaceOnUse"><feComponentTransfer color-interpolation-filters="sRGB"><feFuncR type="discrete" tableValues="0 0"/><feFuncG type="discrete" tableValues="0 0"/><feFuncB type="discrete" tableValues="0 0"/><feFuncA type="linear" slope="0.4" intercept="0"/></feComponentTransfer><feGaussianBlur stdDeviation="1.77724 1.77778"/></filter><filter id="fx1" x="-10%" y="-10%" width="120%" height="120%" filterUnits="userSpaceOnUse" primitiveUnits="userSpaceOnUse"><feComponentTransfer color-interpolation-filters="sRGB"><feFuncR type="discrete" tableValues="0 0"/><feFuncG type="discrete" tableValues="0 0"/><feFuncB type="discrete" tableValues="0 0"/><feFuncA type="linear" slope="0.4" intercept="0"/></feComponentTransfer><feGaussianBlur stdDeviation="1.77724 1.77778"/></filter><filter id="fx2" x="-10%" y="-10%" width="120%" height="120%" filterUnits="userSpaceOnUse" primitiveUnits="userSpaceOnUse"><feComponentTransfer color-interpolation-filters="sRGB"><feFuncR type="discrete" tableValues="0 0"/><feFuncG type="discrete" tableValues="0 0"/><feFuncB type="discrete" tableValues="0 0"/><feFuncA type="linear" slope="0.4" intercept="0"/></feComponentTransfer><feGaussianBlur stdDeviation="1.77724 1.77778"/></filter><filter id="fx3" x="-10%" y="-10%" width="120%" height="120%" filterUnits="userSpaceOnUse" primitiveUnits="userSpaceOnUse"><feComponentTransfer color-interpolation-filters="sRGB"><feFuncR type="discrete" tableValues="0 0"/><feFuncG type="discrete" tableValues="0 0"/><feFuncB type="discrete" tableValues="0 0"/><feFuncA type="linear" slope="0.4" intercept="0"/></feComponentTransfer><feGaussianBlur stdDeviation="1.77724 1.77778"/></filter><clipPath id="clip4"><rect x="0" y="0" width="1107" height="461"/></clipPath><clipPath id="clip5"><rect x="-2" y="3" width="73" height="31"/></clipPath><clipPath id="clip6"><rect x="5" y="-2" width="26" height="232"/></clipPath><clipPath id="clip7"><rect x="5" y="-2" width="26" height="230"/></clipPath></defs><g clip-path="url(#clip4)"><rect x="0" y="0" width="1107" height="461.139" fill="#FFFFFF"/><path d="M5.08529 156.896 92.6615 156.896 92.6615 237.331 5.08529 237.331Z" fill="#A6A6A6" fill-rule="evenodd"/><path d="M92.6615 156.896 180.238 156.896 180.238 237.331 92.6615 237.331Z" fill="#A6A6A6" fill-rule="evenodd"/><path d="M180.238 156.896 267.814 156.896 267.814 237.331 180.238 237.331Z" fill="#A6A6A6" fill-rule="evenodd"/><path d="M92.6615 237.331 180.238 237.331 180.238 314.599 92.6615 314.599Z" fill="#A6A6A6" fill-rule="evenodd"/><path d="M92.6615 75.794 92.6615 395.701" stroke="#000000" stroke-width="1.33293" stroke-linecap="square" stroke-linejoin="round" stroke-miterlimit="10" stroke-dasharray="3.9988 1.33293" fill="none" fill-rule="evenodd"/><path d="M180.238 75.794 180.238 395.701" stroke="#000000" stroke-width="1.33293" stroke-linecap="square" stroke-linejoin="round" stroke-miterlimit="10" stroke-dasharray="3.9988 1.33293" fill="none" fill-rule="evenodd"/><path d="M267.814 75.794 267.814 395.701" stroke="#000000" stroke-width="1.33293" stroke-linecap="square" stroke-linejoin="round" stroke-miterlimit="10" stroke-dasharray="3.9988 1.33293" fill="none" fill-rule="evenodd"/><path d="M4.41883 156.896 356.057 156.896" stroke="#000000" stroke-width="1.33293" stroke-linecap="square" stroke-linejoin="round" stroke-miterlimit="10" stroke-dasharray="3.9988 1.33293" fill="none" fill-rule="evenodd"/><path d="M4.41883 237.331 356.057 237.331" stroke="#000000" stroke-width="1.33293" stroke-linecap="square" stroke-linejoin="round" stroke-miterlimit="10" stroke-dasharray="3.9988 1.33293" fill="none" fill-rule="evenodd"/><path d="M4.41883 314.599 356.057 314.599" stroke="#000000" stroke-width="1.33293" stroke-linecap="square" stroke-linejoin="round" stroke-miterlimit="10" stroke-dasharray="3.9988 1.33293" fill="none" fill-rule="evenodd"/><path d="M5.08529 75.794 5.08529 395.701" stroke="#000000" stroke-width="1.33293" stroke-linecap="square" stroke-linejoin="round" stroke-miterlimit="10" stroke-dasharray="3.9988 1.33293" fill="none" fill-rule="evenodd"/><path d="M355.39 75.794 355.39 395.701" stroke="#000000" stroke-width="1.33293" stroke-linecap="square" stroke-linejoin="round" stroke-miterlimit="10" stroke-dasharray="3.9988 1.33293" fill="none" fill-rule="evenodd"/><path d="M4.41883 76.4607 356.057 76.4607" stroke="#000000" stroke-width="1.33293" stroke-linecap="square" stroke-linejoin="round" stroke-miterlimit="10" stroke-dasharray="3.9988 1.33293" fill="none" fill-rule="evenodd"/><path d="M4.41883 395.034 356.057 395.034" stroke="#000000" stroke-width="1.33293" stroke-linecap="square" stroke-linejoin="round" stroke-miterlimit="10" stroke-dasharray="3.9988 1.33293" fill="none" fill-rule="evenodd"/><g><text font-family="Roboto,Roboto_MSFontService,sans-serif" font-weight="700" font-size="21" transform="matrix(1 0 0 1.0003 333.486 101)">4</text></g><g><text font-family="Roboto,Roboto_MSFontService,sans-serif" font-weight="700" font-size="21" transform="matrix(1 0 0 1.0003 245.91 101)">3</text></g><g><text font-family="Roboto,Roboto_MSFontService,sans-serif" font-weight="700" font-size="21" transform="matrix(1 0 0 1.0003 158.333 101)">2</text></g><g><text font-family="Roboto,Roboto_MSFontService,sans-serif" font-weight="700" font-size="21" transform="matrix(1 0 0 1.0003 70.7571 101)">1</text></g><g><text font-family="Roboto,Roboto_MSFontService,sans-serif" font-weight="700" font-size="21" transform="matrix(1 0 0 1.0003 333.486 182)">8</text></g><g><text font-family="Roboto,Roboto_MSFontService,sans-serif" font-weight="700" font-size="21" transform="matrix(1 0 0 1.0003 245.91 182)">7</text></g><g><text font-family="Roboto,Roboto_MSFontService,sans-serif" font-weight="700" font-size="21" transform="matrix(1 0 0 1.0003 158.333 182)">6</text></g><g><text font-family="Roboto,Roboto_MSFontService,sans-serif" font-weight="700" font-size="21" transform="matrix(1 0 0 1.0003 70.7571 182)">5</text></g><g><text font-family="Roboto,Roboto_MSFontService,sans-serif" font-weight="700" font-size="21" transform="matrix(1 0 0 1.0003 321.323 262)">12</text></g><g><text font-family="Roboto,Roboto_MSFontService,sans-serif" font-weight="700" font-size="21" transform="matrix(1 0 0 1.0003 233.747 262)">11</text></g><g><text font-family="Roboto,Roboto_MSFontService,sans-serif" font-weight="700" font-size="21" transform="matrix(1 0 0 1.0003 146.17 262)">10</text></g><g><text font-family="Roboto,Roboto_MSFontService,sans-serif" font-weight="700" font-size="21" transform="matrix(1 0 0 1.0003 70.7571 262)">9</text></g><g><text font-family="Roboto,Roboto_MSFontService,sans-serif" font-weight="700" font-size="21" transform="matrix(1 0 0 1.0003 321.323 340)">16</text></g><g><text font-family="Roboto,Roboto_MSFontService,sans-serif" font-weight="700" font-size="21" transform="matrix(1 0 0 1.0003 233.747 340)">15</text></g><g><text font-family="Roboto,Roboto_MSFontService,sans-serif" font-weight="700" font-size="21" transform="matrix(1 0 0 1.0003 146.17 340)">14</text></g><g><text font-family="Roboto,Roboto_MSFontService,sans-serif" font-weight="700" font-size="21" transform="matrix(1 0 0 1.0003 58.5941 340)">13</text></g><path d="M403.111 223.067C398.631 223.067 395 219.435 395 214.954L395 108.143C395 103.662 398.631 100.03 403.111 100.03M786.889 100.03C791.369 100.03 795 103.662 795 108.143L795 214.954C795 219.435 791.369 223.067 786.889 223.067" stroke="#000000" stroke-width="2.33263" stroke-miterlimit="8" fill="none" fill-rule="evenodd"/><path d="M225 264.58C233.56 264.58 240.5 271.297 240.5 279.584 240.5 287.871 233.56 294.589 225 294.589 216.44 294.589 209.5 287.871 209.5 279.584 209.5 271.297 216.44 264.58 225 264.58Z" stroke="#000000" stroke-width="3" stroke-miterlimit="8" fill="#C00000" fill-rule="evenodd"/><text fill="#FFFFFF" font-family="Calibri,Calibri_MSFontService,sans-serif" font-weight="400" font-size="32" transform="matrix(1 0 0 1.0003 216.268 290)">R</text><path d="M309 343.603C317.008 343.603 323.5 350.545 323.5 359.108 323.5 367.671 317.008 374.613 309 374.613 300.992 374.613 294.5 367.671 294.5 359.108 294.5 350.545 300.992 343.603 309 343.603Z" stroke="#000000" stroke-width="3" stroke-miterlimit="8" fill="#C00000" fill-rule="evenodd"/><text fill="#FFFFFF" font-family="Calibri,Calibri_MSFontService,sans-serif" font-weight="400" font-size="32" transform="matrix(1 0 0 1.0003 299.878 370)">R</text><path d="M311.5 100.03C319.508 100.03 326 106.748 326 115.035 326 123.321 319.508 130.039 311.5 130.039 303.492 130.039 297 123.321 297 115.035 297 106.748 303.492 100.03 311.5 100.03Z" stroke="#000000" stroke-width="3.66667" stroke-miterlimit="8" fill="#2F5597" fill-rule="evenodd"/><text fill="#FFFFFF" font-family="Calibri,Calibri_MSFontService,sans-serif" font-weight="400" font-size="32" transform="matrix(1 0 0 1.0003 303.625 126)">T</text><path d="M43.5 100.03C51.5081 100.03 58 106.748 58 115.035 58 123.321 51.5081 130.039 43.5 130.039 35.4919 130.039 29 123.321 29 115.035 29 106.748 35.4919 100.03 43.5 100.03Z" stroke="#000000" stroke-width="3.66667" stroke-miterlimit="8" fill="#2F5597" fill-rule="evenodd"/><text fill="#FFFFFF" font-family="Calibri,Calibri_MSFontService,sans-serif" font-weight="400" font-size="32" transform="matrix(1 0 0 1.0003 35.227 126)">T</text><g clip-path="url(#clip5)" filter="url(#fx0)" transform="translate(208 408)"><g><path d="M7.32758 16.9555 59.2483 16.9556 59.2483 19.9565 7.32757 19.9564ZM51.0041 11.9084 62.2252 18.456 51.004 25.0037C50.2885 25.4212 49.37 25.1794 48.9526 24.4636 48.5351 23.7478 48.7768 22.8291 49.4924 22.4115L58.4924 17.16 58.4924 19.7521 49.4924 14.5005C48.7769 14.0829 48.5352 13.1642 48.9526 12.4484 49.37 11.7326 50.2885 11.4908 51.0041 11.9084Z"/></g></g><path d="M212.5 422.294 264.752 422.294 264.752 424.961 212.5 424.961ZM257.426 417.809 267.397 423.628 257.425 429.446C256.79 429.817 255.973 429.602 255.602 428.966 255.232 428.33 255.446 427.514 256.082 427.143L264.08 422.476 264.08 424.779 256.082 420.113C255.446 419.742 255.232 418.925 255.603 418.289 255.973 417.653 256.79 417.438 257.426 417.809Z"/><text font-family="Roboto,Roboto_MSFontService,sans-serif" font-weight="400" font-size="24" transform="matrix(1 0 0 1.0003 57.5091 434)">TX</text><text font-family="Roboto,Roboto_MSFontService,sans-serif" font-weight="400" font-size="24" transform="matrix(1 0 0 1.0003 157.962 434)">RX</text><text font-family="Roboto,Roboto_MSFontService,sans-serif" font-weight="400" font-size="24" transform="matrix(1 0 0 1.0003 276.529 432)">Dipole</text><path d="M829.5 429.129C823.701 429.129 819 424.427 819 418.626L819 110.533C819 104.733 823.701 100.03 829.5 100.03M871.5 100.03C877.299 100.03 882 104.733 882 110.533L882 418.626C882 424.427 877.299 429.129 871.5 429.129" stroke="#000000" stroke-width="2.33263" stroke-miterlimit="8" fill="none" fill-rule="evenodd"/><text font-family="Roboto,Roboto_MSFontService,sans-serif" font-weight="400" font-size="27" transform="matrix(1 0 0 1.0003 837.265 135)">X</text><text font-family="Roboto,Roboto_MSFontService,sans-serif" font-weight="400" font-size="18" transform="matrix(1 0 0 1.0003 853.927 141)">1</text><text font-family="Roboto,Roboto_MSFontService,sans-serif" font-weight="400" font-size="27" transform="matrix(1 0 0 1.0003 837.265 167)">X</text><text font-family="Roboto,Roboto_MSFontService,sans-serif" font-weight="400" font-size="18" transform="matrix(1 0 0 1.0003 853.927 173)">2</text><text font-family="Roboto,Roboto_MSFontService,sans-serif" font-weight="400" font-size="27" transform="matrix(1 0 0 1.0003 837.265 199)">X</text><text font-family="Roboto,Roboto_MSFontService,sans-serif" font-weight="400" font-size="18" transform="matrix(1 0 0 1.0003 853.927 205)">3</text><text font-family="Roboto,Roboto_MSFontService,sans-serif" font-weight="400" font-size="27" transform="matrix(1 0 0 1.0003 837.265 231)">X</text><text font-family="Roboto,Roboto_MSFontService,sans-serif" font-weight="400" font-size="18" transform="matrix(1 0 0 1.0003 853.927 237)">4</text><text font-family="Roboto,Roboto_MSFontService,sans-serif" font-weight="400" font-size="27" transform="matrix(1 0 0 1.0003 841.684 285)">…</text><text font-family="Roboto,Roboto_MSFontService,sans-serif" font-weight="400" font-size="27" transform="matrix(1 0 0 1.0003 841.684 317)">…</text><text font-family="Roboto,Roboto_MSFontService,sans-serif" font-weight="400" font-size="27" transform="matrix(1 0 0 1.0003 832.267 381)">X</text><text font-family="Roboto,Roboto_MSFontService,sans-serif" font-weight="400" font-size="18" transform="matrix(1 0 0 1.0003 848.928 387)">15</text><text font-family="Roboto,Roboto_MSFontService,sans-serif" font-weight="400" font-size="27" transform="matrix(1 0 0 1.0003 832.267 413)">X</text><text font-family="Roboto,Roboto_MSFontService,sans-serif" font-weight="400" font-size="18" transform="matrix(1 0 0 1.0003 848.928 419)">16</text><path d="M1009.5 212.064C1003.7 212.064 999 207.361 999 201.56L999 110.534C999 104.733 1003.7 100.03 1009.5 100.03M1051.5 100.03C1057.3 100.03 1062 104.733 1062 110.534L1062 201.56C1062 207.361 1057.3 212.064 1051.5 212.064" stroke="#000000" stroke-width="2.33263" stroke-miterlimit="8" fill="none" fill-rule="evenodd"/><text font-family="Roboto,Roboto_MSFontService,sans-serif" font-weight="400" font-size="27" transform="matrix(1 0 0 1.0003 1013.62 133)">M</text><text font-family="Roboto,Roboto_MSFontService,sans-serif" font-weight="400" font-size="18" transform="matrix(1 0 0 1.0003 1036.94 139)">1</text><text font-family="Roboto,Roboto_MSFontService,sans-serif" font-weight="400" font-size="27" transform="matrix(1 0 0 1.0003 1013.62 165)">M</text><text font-family="Roboto,Roboto_MSFontService,sans-serif" font-weight="400" font-size="18" transform="matrix(1 0 0 1.0003 1036.94 171)">2</text><text font-family="Roboto,Roboto_MSFontService,sans-serif" font-weight="400" font-size="27" transform="matrix(1 0 0 1.0003 1013.62 197)">M</text><text font-family="Roboto,Roboto_MSFontService,sans-serif" font-weight="400" font-size="18" transform="matrix(1 0 0 1.0003 1036.94 203)">3</text><path d="M928.904 151.615 956.096 151.615 956.096 158.908 928.904 158.908ZM928.904 164.189 956.096 164.189 956.096 171.482 928.904 171.482Z" fill-rule="evenodd"/><text font-family="Roboto,Roboto_MSFontService,sans-serif" font-weight="400" font-size="24" transform="matrix(1 0 0 1.0003 544.629 42)">Projection</text><text font-family="Roboto,Roboto_MSFontService,sans-serif" font-weight="400" font-size="24" transform="matrix(1 0 0 1.0003 549.208 71)">Matrix (</text><text font-family="Roboto,Roboto_MSFontService,sans-serif" font-style="italic" font-weight="400" font-size="24" transform="matrix(1 0 0 1.0003 631.017 71)">A</text><text font-family="Roboto,Roboto_MSFontService,sans-serif" font-weight="400" font-size="24" transform="matrix(1 0 0 1.0003 646.179 71)">)</text><text font-family="Roboto,Roboto_MSFontService,sans-serif" font-weight="400" font-size="24" transform="matrix(1 0 0 1.0003 782.081 43)">Attenuation</text><text font-family="Roboto,Roboto_MSFontService,sans-serif" font-weight="400" font-size="24" transform="matrix(1 0 0 1.0003 792.245 72)">Image (</text><text font-family="Roboto,Roboto_MSFontService,sans-serif" font-style="italic" font-weight="400" font-size="24" transform="matrix(1 0 0 1.0003 873.054 72)">X</text><text font-family="Roboto,Roboto_MSFontService,sans-serif" font-weight="400" font-size="24" transform="matrix(1 0 0 1.0003 887.716 72)">)</text><text font-family="Roboto,Roboto_MSFontService,sans-serif" font-weight="400" font-size="24" transform="matrix(1 0 0 1.0003 948.883 42)">Measurement</text><text font-family="Roboto,Roboto_MSFontService,sans-serif" font-weight="400" font-size="24" transform="matrix(1 0 0 1.0003 967.544 71)">Matrix (</text><text font-family="Roboto,Roboto_MSFontService,sans-serif" font-style="italic" font-weight="400" font-size="24" transform="matrix(1 0 0 1.0003 1049.35 71)">M</text><text font-family="Roboto,Roboto_MSFontService,sans-serif" font-weight="400" font-size="24" transform="matrix(1 0 0 1.0003 1069.68 71)">)</text><text font-family="Courier New,Courier New_MSFontService,sans-serif" font-weight="400" font-size="27" transform="matrix(1 0 0 1.0003 458.508 302)">P</text><text font-family="Courier New,Courier New_MSFontService,sans-serif" font-weight="400" font-size="24" transform="matrix(1 0 0 1.0003 474.503 302)">ATH</text><text font-family="Roboto,Roboto_MSFontService,sans-serif" font-weight="400" font-size="27" transform="matrix(1 0 0 1.0003 525.488 302)">(D</text><text font-family="Roboto,Roboto_MSFontService,sans-serif" font-weight="400" font-size="18" transform="matrix(1 0 0 1.0003 552.146 308)">1</text><text font-family="Roboto,Roboto_MSFontService,sans-serif" font-weight="400" font-size="27" transform="matrix(1 0 0 1.0003 562.143 302)">) = {1, 6, 11}</text><text font-family="Courier New,Courier New_MSFontService,sans-serif" font-weight="400" font-size="27" transform="matrix(1 0 0 1.0003 457.256 352)">P</text><text font-family="Courier New,Courier New_MSFontService,sans-serif" font-weight="400" font-size="24" transform="matrix(1 0 0 1.0003 473.252 352)">ATH</text><text font-family="Roboto,Roboto_MSFontService,sans-serif" font-weight="400" font-size="27" transform="matrix(1 0 0 1.0003 524.236 352)">(D</text><text font-family="Roboto,Roboto_MSFontService,sans-serif" font-weight="400" font-size="18" transform="matrix(1 0 0 1.0003 550.895 358)">2</text><text font-family="Roboto,Roboto_MSFontService,sans-serif" font-weight="400" font-size="27" transform="matrix(1 0 0 1.0003 560.892 352)">) = {2, 6, 10, 14}</text><text font-family="Courier New,Courier New_MSFontService,sans-serif" font-weight="400" font-size="27" transform="matrix(1 0 0 1.0003 456.631 403)">P</text><text font-family="Courier New,Courier New_MSFontService,sans-serif" font-weight="400" font-size="24" transform="matrix(1 0 0 1.0003 472.626 403)">ATH</text><text font-family="Roboto,Roboto_MSFontService,sans-serif" font-weight="400" font-size="27" transform="matrix(1 0 0 1.0003 522.778 403)">(D</text><text font-family="Roboto,Roboto_MSFontService,sans-serif" font-weight="400" font-size="18" transform="matrix(1 0 0 1.0003 549.436 409)">3</text><text font-family="Roboto,Roboto_MSFontService,sans-serif" font-weight="400" font-size="27" transform="matrix(1 0 0 1.0003 559.433 403)">) = {4, 8, 12, 16}</text><text font-family="Roboto,Roboto_MSFontService,sans-serif" font-weight="400" font-size="24" transform="matrix(1 0 0 1.0003 14.6824 45)">Region of Interest, 16 Locations</text><g filter="url(#fx1)" transform="translate(48 120)"><g><path d="M8.49142 7.11803 167.675 148.461 166.347 149.957 7.16373 8.61421ZM165.077 140.097 168.495 150.527 157.736 148.369C157.195 148.26 156.844 147.733 156.953 147.192 157.061 146.65 157.588 146.299 158.13 146.407L167.208 148.228 166.061 149.521 163.177 140.72C163.005 140.195 163.291 139.63 163.816 139.458 164.34 139.286 164.905 139.572 165.077 140.097Z"/></g></g><path d="M53.7743 124.165 212.711 265.289 211.163 267.034 52.2257 125.91ZM210.162 256.998 213.668 267.699 202.63 265.485C201.998 265.358 201.589 264.744 201.716 264.112 201.842 263.48 202.457 263.071 203.088 263.197L212.167 265.018 210.829 266.525 207.945 257.724C207.744 257.112 208.078 256.453 208.69 256.252 209.302 256.052 209.961 256.385 210.162 256.998Z"/><g clip-path="url(#clip6)" filter="url(#fx2)" transform="translate(294 126)"><g><path d="M0.999912-0.0132951 3.81367 211.607 1.81385 211.634-0.999912 0.0132951ZM8.24269 204.054 2.84015 213.605-2.81442 204.201C-3.09902 203.728-2.94603 203.113-2.47272 202.829-1.99941 202.544-1.38501 202.697-1.10041 203.17L3.67077 211.105 1.94336 211.128 6.50188 203.069C6.7738 202.589 7.38392 202.419 7.86463 202.691 8.34534 202.963 8.5146 203.573 8.24269 204.054Z" transform="matrix(-1 0 0 1.0003 20.6676 6.86758)"/></g></g><path d="M1.16621-0.0155063 3.9756 211.276 1.64317 211.307-1.16621 0.0155063ZM8.38307 203.807 2.84016 213.606-2.96133 203.957C-3.29326 203.405-3.11483 202.689-2.5628 202.357-2.01078 202.025-1.29418 202.203-0.962254 202.755L3.80892 210.69 1.79422 210.717 6.35275 202.658C6.66988 202.097 7.38148 201.9 7.94214 202.217 8.50279 202.534 8.70021 203.246 8.38307 203.807Z" transform="matrix(-1 0 0 1.0003 311.84 130.039)"/><path d="M135 345.604C142.456 345.604 148.5 352.098 148.5 360.108 148.5 368.119 142.456 374.613 135 374.613 127.544 374.613 121.5 368.119 121.5 360.108 121.5 352.098 127.544 345.604 135 345.604Z" stroke="#000000" stroke-width="3" stroke-miterlimit="8" fill="#C00000" fill-rule="evenodd"/><text fill="#FFFFFF" font-family="Calibri,Calibri_MSFontService,sans-serif" font-weight="400" font-size="32" transform="matrix(1 0 0 1.0003 125.984 370)">R</text><path d="M133.5 102.031C141.508 102.031 148 108.525 148 116.535 148 124.546 141.508 131.039 133.5 131.039 125.492 131.039 119 124.546 119 116.535 119 108.525 125.492 102.031 133.5 102.031Z" stroke="#000000" stroke-width="3.66667" stroke-miterlimit="8" fill="#2F5597" fill-rule="evenodd"/><text fill="#FFFFFF" font-family="Calibri,Calibri_MSFontService,sans-serif" font-weight="400" font-size="32" transform="matrix(1 0 0 1.0003 125.751 128)">T</text><g clip-path="url(#clip7)" filter="url(#fx3)" transform="translate(120 128)"><g><path d="M1-0.00105412 1.22189 210.494-0.778112 210.496-1 0.00105412ZM5.74303 202.996 0.22398 212.48-5.31505 203.008C-5.59383 202.531-5.43334 201.918-4.95658 201.64-4.47983 201.361-3.86734 201.521-3.58856 201.998L1.08513 209.991-0.642422 209.993 4.01441 201.99C4.29218 201.513 4.90433 201.351 5.38168 201.629 5.85902 201.907 6.0208 202.519 5.74303 202.996Z" transform="matrix(-1 0 0 1.0003 18.0515 6.86821)"/></g></g><path d="M1.16631-0.00122943 1.38785 210.165-0.944775 210.167-1.16631 0.00122943ZM5.88643 202.75 0.22398 212.481-5.45897 202.762C-5.78412 202.206-5.59693 201.492-5.04088 201.167-4.48483 200.842-3.77048 201.029-3.44533 201.585L1.22836 209.578-0.786517 209.58 3.87031 201.577C4.19429 201.02 4.90825 200.832 5.46498 201.156 6.02172 201.48 6.2104 202.194 5.88643 202.75Z" transform="matrix(-1 0 0 1.0003 135.224 132.04)"/><path d="M32.5 410.123C41.0604 410.123 48 417.065 48 425.628 48 434.191 41.0604 441.133 32.5 441.133 23.9396 441.133 17 434.191 17 425.628 17 417.065 23.9396 410.123 32.5 410.123Z" stroke="#000000" stroke-width="2" stroke-miterlimit="8" fill="#2F5597" fill-rule="evenodd"/><text fill="#FFFFFF" font-family="Calibri,Calibri_MSFontService,sans-serif" font-weight="400" font-size="27" transform="matrix(1 0 0 1.0003 25.6145 435)">T</text><path d="M131.5 411.124C140.06 411.124 147 418.065 147 426.628 147 435.191 140.06 442.133 131.5 442.133 122.94 442.133 116 435.191 116 426.628 116 418.065 122.94 411.124 131.5 411.124Z" stroke="#000000" stroke-width="2" stroke-miterlimit="8" fill="#C00000" fill-rule="evenodd"/><text fill="#FFFFFF" font-family="Calibri,Calibri_MSFontService,sans-serif" font-weight="400" font-size="32" transform="matrix(1 0 0 1.0003 123.261 438)">R</text><text font-family="Roboto,Roboto_MSFontService,sans-serif" font-weight="700" font-size="24" transform="matrix(1 0 0 1.0003 178.122 228)">D</text><text font-family="Roboto,Roboto_MSFontService,sans-serif" font-weight="700" font-size="16" transform="matrix(1 0 0 1.0003 193.784 233)">1</text><text font-family="Roboto,Roboto_MSFontService,sans-serif" font-weight="700" font-size="24" transform="matrix(1 0 0 1.0003 102.481 298)">D</text><text font-family="Roboto,Roboto_MSFontService,sans-serif" font-weight="700" font-size="16" transform="matrix(1 0 0 1.0003 118.143 303)">2</text><text font-family="Roboto,Roboto_MSFontService,sans-serif" font-weight="700" font-size="24" transform="matrix(1 0 0 1.0003 282.734 196)">D</text><text font-family="Roboto,Roboto_MSFontService,sans-serif" font-weight="700" font-size="16" transform="matrix(1 0 0 1.0003 298.396 201)">3</text><text font-family="Roboto,Roboto_MSFontService,sans-serif" font-weight="700" font-size="29" transform="matrix(1 0 0 1.0003 406.776 138)">1</text><text font-family="Roboto,Roboto_MSFontService,sans-serif" font-weight="400" font-size="29" transform="matrix(1 0 0 1.0003 430.936 138)">0 0 0 0</text><text font-family="Roboto,Roboto_MSFontService,sans-serif" font-weight="700" font-size="29" transform="matrix(1 0 0 1.0003 526.24 138)">1</text><text font-family="Roboto,Roboto_MSFontService,sans-serif" font-weight="400" font-size="29" transform="matrix(1 0 0 1.0003 550.4 138)">0 0 0 0</text><text font-family="Roboto,Roboto_MSFontService,sans-serif" font-weight="700" font-size="29" transform="matrix(1 0 0 1.0003 645.704 138)">1</text><text font-family="Roboto,Roboto_MSFontService,sans-serif" font-weight="400" font-size="29" transform="matrix(1 0 0 1.0003 669.864 138)">0 0 0 0 0</text><text font-family="Roboto,Roboto_MSFontService,sans-serif" font-weight="400" font-size="29" transform="matrix(1 0 0 1.0003 406.61 173)">0</text><text font-family="Roboto,Roboto_MSFontService,sans-serif" font-weight="700" font-size="29" transform="matrix(1 0 0 1.0003 430.436 173)">1</text><text font-family="Roboto,Roboto_MSFontService,sans-serif" font-weight="400" font-size="29" transform="matrix(1 0 0 1.0003 454.595 173)">0 0 0</text><text font-family="Roboto,Roboto_MSFontService,sans-serif" font-weight="700" font-size="29" transform="matrix(1 0 0 1.0003 526.074 173)">1</text><text font-family="Roboto,Roboto_MSFontService,sans-serif" font-weight="400" font-size="29" transform="matrix(1 0 0 1.0003 550.233 173)">0 0 0</text><text font-family="Roboto,Roboto_MSFontService,sans-serif" font-weight="700" font-size="29" transform="matrix(1 0 0 1.0003 621.711 173)">1</text><text font-family="Roboto,Roboto_MSFontService,sans-serif" font-weight="400" font-size="29" transform="matrix(1 0 0 1.0003 645.871 173)">0 0 0</text><text font-family="Roboto,Roboto_MSFontService,sans-serif" font-weight="700" font-size="29" transform="matrix(1 0 0 1.0003 717.349 173)">1</text><text font-family="Roboto,Roboto_MSFontService,sans-serif" font-weight="400" font-size="29" transform="matrix(1 0 0 1.0003 741.509 173)">0 0</text><text font-family="Roboto,Roboto_MSFontService,sans-serif" font-weight="400" font-size="29" transform="matrix(1 0 0 1.0003 406.61 208)">0 0 0</text><text font-family="Roboto,Roboto_MSFontService,sans-serif" font-weight="700" font-size="29" transform="matrix(1 0 0 1.0003 478.088 208)">1</text><text font-family="Roboto,Roboto_MSFontService,sans-serif" font-weight="400" font-size="29" transform="matrix(1 0 0 1.0003 502.247 208)">0 0 0</text><text font-family="Roboto,Roboto_MSFontService,sans-serif" font-weight="700" font-size="29" transform="matrix(1 0 0 1.0003 573.726 208)">1</text><text font-family="Roboto,Roboto_MSFontService,sans-serif" font-weight="400" font-size="29" transform="matrix(1 0 0 1.0003 597.885 208)">0 0 0</text><text font-family="Roboto,Roboto_MSFontService,sans-serif" font-weight="700" font-size="29" transform="matrix(1 0 0 1.0003 669.364 208)">1</text><text font-family="Roboto,Roboto_MSFontService,sans-serif" font-weight="400" font-size="29" transform="matrix(1 0 0 1.0003 693.523 208)">0 0 0</text><text font-family="Roboto,Roboto_MSFontService,sans-serif" font-weight="700" font-size="29" transform="matrix(1 0 0 1.0003 765.002 208)">1</text></g></svg>